<?xml version="1.0" encoding="utf-8"?>
<!-- Generator: Adobe Illustrator 15.1.0, SVG Export Plug-In . SVG Version: 6.00 Build 0)  -->
<!DOCTYPE svg PUBLIC "-//W3C//DTD SVG 1.1//EN" "http://www.w3.org/Graphics/SVG/1.1/DTD/svg11.dtd">
<svg version="1.1" id="Layer_1" xmlns="http://www.w3.org/2000/svg" xmlns:xlink="http://www.w3.org/1999/xlink" x="0px" y="0px"
	 width="50px" height="50px" viewBox="0 0 50 50" enable-background="new 0 0 50 50" xml:space="preserve">
<g id="double_flat">
	<path fill="currentColor" stroke="currentColor" d="M28.25,11.2v15.7c1.031-0.9,2.215-1.4,3.549-1.5c0.834,0,1.566,0.333,2.201,1
		c0.633,0.633,0.965,1.416,1,2.35c-0.102,1.2-0.568,2.25-1.4,3.15c-0.834,0.898-1.701,1.683-2.6,2.35c-1.436,1.2-2.768,2.45-4,3.75
		v-6.398c-0.867,1.031-1.784,1.916-2.751,2.648c-1.4,1.2-2.717,2.45-3.95,3.75V11.2h1.25v15.7c1-0.9,2.167-1.4,3.5-1.5
		c0.733,0,1.383,0.267,1.951,0.8v-15H28.25z M28.25,28.7v6.7c0.732-0.834,1.531-1.801,2.398-2.9
		c0.834-1.133,1.283-2.268,1.352-3.398c-0.068-1.269-0.584-1.983-1.551-2.15c-0.467-0.033-0.934,0.167-1.4,0.6
		C28.582,28.018,28.316,28.4,28.25,28.7z M23.699,26.95c-0.467-0.033-0.933,0.167-1.4,0.6c-0.467,0.468-0.717,0.851-0.75,1.15v6.7
		c0.7-0.834,1.483-1.801,2.35-2.9c0.833-1.133,1.283-2.268,1.35-3.398C25.149,27.833,24.632,27.117,23.699,26.95z"/>
</g>
</svg>
