<?xml version="1.0" encoding="utf-8"?>
<!-- Generator: Adobe Illustrator 15.1.0, SVG Export Plug-In . SVG Version: 6.00 Build 0)  -->
<!DOCTYPE svg PUBLIC "-//W3C//DTD SVG 1.1//EN" "http://www.w3.org/Graphics/SVG/1.1/DTD/svg11.dtd">
<svg version="1.1" id="Layer_1" xmlns="http://www.w3.org/2000/svg" xmlns:xlink="http://www.w3.org/1999/xlink" x="0px" y="0px"
	 width="50px" height="50px" viewBox="0 0 50 50" enable-background="new 0 0 50 50" xml:space="preserve">
<g id="double_sharp">
	<path fill="currentColor" stroke="currentColor" d="M21.299,23.45V20h3.5l0.4,2.4c0,0.199,0.117,0.5,0.35,0.899c0.201,0.367,0.567,0.567,1.102,0.601
		c0.898-0.167,1.383-0.684,1.449-1.551l0.301-2.35H32v3.45l-2.301,0.45c-0.801,0.1-1.268,0.583-1.4,1.449
		c0.133,0.9,0.633,1.367,1.5,1.4L32,27.1v3.5h-3.602L28.1,28.1c-0.134-0.865-0.617-1.332-1.451-1.398
		c-0.5,0.066-0.851,0.267-1.049,0.6c-0.201,0.333-0.317,0.618-0.351,0.852l-0.45,2.447h-3.5v-3.5l2.25-0.449
		c0.9-0.101,1.382-0.582,1.451-1.449c-0.033-0.5-0.234-0.867-0.601-1.101c-0.333-0.199-0.617-0.316-0.85-0.35L21.299,23.45z"/>
</g>
</svg>
