<?xml version="1.0" encoding="utf-8"?>
<!-- Generator: Adobe Illustrator 15.1.0, SVG Export Plug-In . SVG Version: 6.00 Build 0)  -->
<!DOCTYPE svg PUBLIC "-//W3C//DTD SVG 1.1//EN" "http://www.w3.org/Graphics/SVG/1.1/DTD/svg11.dtd">
<svg version="1.1" id="Layer_1" xmlns="http://www.w3.org/2000/svg" xmlns:xlink="http://www.w3.org/1999/xlink" x="0px" y="0px"
	 width="50px" height="50px" viewBox="0 0 50 50" enable-background="new 0 0 50 50" xml:space="preserve">
<g id="tenorVoiceClefIcon_1_" opacity="0.33">
	<line fill="currentColor" stroke="currentColor" stroke-miterlimit="3" x1="7.5" y1="11" x2="43.5" y2="11"/>
	<line fill="currentColor" stroke="currentColor" stroke-miterlimit="3" x1="7.5" y1="17" x2="43.5" y2="17"/>
	<line fill="currentColor" stroke="currentColor" stroke-miterlimit="3" x1="7.5" y1="23" x2="43.5" y2="23"/>
	<line fill="currentColor" stroke="currentColor" stroke-miterlimit="3" x1="7.5" y1="29" x2="43.5" y2="29"/>
	<line fill="currentColor" stroke="currentColor" stroke-miterlimit="3" x1="7.5" y1="35" x2="43.5" y2="35"/>
</g>
<g enable-background="new    ">
	<path fill="currentColor" stroke="currentColor" d="M17.143,13.354c0,0.483-0.126,0.966-0.462,1.344c-0.231,0.272-0.504,0.42-0.819,0.567
		c-0.189,0.104-0.42,0.125-0.651,0.188c-0.063,0.021-0.084,0.104-0.084,0.188c0,0.043,0,0.063,0.021,0.105
		c0.042,0.084,0.105,0.084,0.21,0.105l0.693,0.188l0.441,0.252c0.21,0.126,0.378,0.272,0.504,0.44
		c0.168,0.189,0.315,0.399,0.399,0.609c0.126,0.273,0.168,0.566,0.189,0.861v0.146c0,1.848-2.142,2.918-4.22,2.918h-0.189
		c-2.058-0.041-3.548-0.672-3.59-2.309c0-0.463,0.105-0.967,0.462-1.281c0.252-0.273,0.651-0.482,1.008-0.546
		c0.084-0.021,0.147-0.021,0.231-0.021c0.567,0,1.176,0.336,1.407,0.86c0.084,0.21,0.105,0.44,0.105,0.651
		c-0.021,0.608-0.483,0.924-0.483,1.385v0.105c0.021,0.314,0.42,0.314,0.588,0.336c0.021,0,0.105,0.021,0.189,0.021
		c0.462,0,1.596-0.252,1.596-2.479c0-0.272-0.189-1.91-2.604-1.91c-0.168,0-0.525,0-0.525-0.252c0-0.23,0.294-0.336,0.504-0.357
		c1.323-0.062,2.562-0.672,2.562-2.225v-0.147c0-0.504-0.168-1.616-1.953-1.616c-0.189,0-0.84,0.168-0.882,0.524v0.084
		c0,0.294,0.315,0.252,0.42,0.294s0.63,0.084,0.693,0.861v0.168c0,0.692-0.462,1.364-1.386,1.364h-0.105
		c-1.302-0.084-1.701-1.008-1.701-1.7c0-1.113,1.806-2.311,3.611-2.311c0.105,0,0.21,0.021,0.315,0.021
		C14.518,10.855,17.143,11.423,17.143,13.354z"/>
</g>
<g enable-background="new    ">
	<path fill="currentColor" stroke="currentColor" d="M17.505,31.554c0.231,0,0.315,0.147,0.315,0.399s-0.105,0.398-0.315,0.398h-1.533v1.238
		c0,0.672,0.441,0.799,0.651,0.799s0.462,0.125,0.462,0.42c0,0.293-0.21,0.44-0.42,0.44h-4.472c-0.315,0-0.399-0.231-0.399-0.44
		c0-0.211,0.147-0.399,0.483-0.399c0.378,0,0.84-0.168,0.84-0.735v-1.322H9.212c-0.252,0-0.42-0.146-0.42-0.357
		c0-0.062,0.021-0.146,0.063-0.23c0-0.021,0.021-0.042,0.021-0.062l0.126-0.168c0.63-0.883,2.688-3.801,2.688-6.404
		c0-0.336,0.294-0.398,0.483-0.398c0.168,0,1.113,0.041,1.491,0.041s1.239-0.041,1.428-0.041c0.168,0,0.315,0.125,0.315,0.293
		c0,0.043-0.021,0.063-0.021,0.105c-0.063,0.23-3.422,4.997-5.102,6.425h2.834V29.79c0-0.252,0.105-0.378,0.189-0.483l1.995-2.414
		c0.126-0.146,0.231-0.189,0.42-0.189c0.231,0,0.252,0.189,0.252,0.357v4.493H17.505z"/>
</g>
</svg>
