<?xml version="1.0" encoding="utf-8"?>
<!-- Generator: Adobe Illustrator 15.1.0, SVG Export Plug-In . SVG Version: 6.00 Build 0)  -->
<!DOCTYPE svg PUBLIC "-//W3C//DTD SVG 1.1//EN" "http://www.w3.org/Graphics/SVG/1.1/DTD/svg11.dtd">
<svg version="1.1" id="Layer_1" xmlns="http://www.w3.org/2000/svg" xmlns:xlink="http://www.w3.org/1999/xlink" x="0px" y="0px"
	 width="50px" height="50px" viewBox="0 0 50 50" enable-background="new 0 0 50 50" xml:space="preserve">
<g id="tenorVoiceClefIcon_1_" opacity="0.33">
	<line fill="none" stroke="#666658" stroke-miterlimit="3" x1="7.5" y1="11" x2="43.5" y2="11"/>
	<line fill="none" stroke="#666658" stroke-miterlimit="3" x1="7.5" y1="17" x2="43.5" y2="17"/>
	<line fill="none" stroke="#666658" stroke-miterlimit="3" x1="7.5" y1="23" x2="43.5" y2="23"/>
	<line fill="none" stroke="#666658" stroke-miterlimit="3" x1="7.5" y1="29" x2="43.5" y2="29"/>
	<line fill="none" stroke="#666658" stroke-miterlimit="3" x1="7.5" y1="35" x2="43.5" y2="35"/>
</g>
<path id="sharp" fill="currentColor" stroke="currentColor" d="M13.016,2.609v4.722l1.667-0.441V2.011h0.787v4.723l1.197-0.315v2.55L15.47,9.252v3.621
	l1.197-0.315v2.612l-1.197,0.315v4.66h-0.787v-4.471l-1.667,0.409v4.88h-0.787v-4.692L11,16.557v-2.583l1.228-0.315V10.07L11,10.385
	v-2.55l1.228-0.315V2.609H13.016z M13.016,9.881v3.589l1.667-0.44V9.44L13.016,9.881z"/>
<path id="sharp_1_" fill="currentColor" stroke="currentColor" d="M20.849,10.443v4.722l1.667-0.441V9.844h0.787v4.723l1.197-0.315v2.55l-1.197,0.284v3.621
	l1.197-0.315v2.612l-1.197,0.315v4.66h-0.787v-4.471l-1.667,0.409v4.88h-0.787v-4.692l-1.229,0.287v-2.583l1.228-0.315v-3.589
	l-1.228,0.315v-2.55l1.228-0.315v-4.911H20.849z M20.849,17.715v3.589l1.667-0.44v-3.59L20.849,17.715z"/>
<path id="sharp_2_" fill="currentColor" stroke="currentColor" d="M28.016-1.068v4.722l1.667-0.441v-4.879h0.787v4.723l1.197-0.315v2.55L30.47,5.575v3.621
	l1.197-0.315v2.612l-1.197,0.315v4.66h-0.787v-4.471l-1.666,0.409v4.88h-0.787v-4.692L26,12.88v-2.583l1.228-0.315V6.393L26,6.708
	v-2.55l1.228-0.315v-4.911H28.016z M28.016,6.204v3.589l1.667-0.44v-3.59L28.016,6.204z"/>
</svg>
