<?xml version="1.0" encoding="utf-8"?>
<!-- Generator: Adobe Illustrator 15.1.0, SVG Export Plug-In . SVG Version: 6.00 Build 0)  -->
<!DOCTYPE svg PUBLIC "-//W3C//DTD SVG 1.1//EN" "http://www.w3.org/Graphics/SVG/1.1/DTD/svg11.dtd">
<svg version="1.1" id="Layer_1" xmlns="http://www.w3.org/2000/svg" xmlns:xlink="http://www.w3.org/1999/xlink" x="0px" y="0px"
	 width="50px" height="50px" viewBox="0 0 50 50" enable-background="new 0 0 50 50" xml:space="preserve">
<g id="trebleClefIcon">
	<line opacity="0.33" fill="currentColor" stroke="currentColor" stroke-miterlimit="3" x1="7.5" y1="11" x2="43.5" y2="11"/>
	<line opacity="0.33" fill="currentColor" stroke="currentColor" stroke-miterlimit="3" x1="7.5" y1="17" x2="43.5" y2="17"/>
	<line opacity="0.33" fill="currentColor" stroke="currentColor" stroke-miterlimit="3" x1="7.5" y1="23" x2="43.5" y2="23"/>
	<line opacity="0.33" fill="currentColor" stroke="currentColor" stroke-miterlimit="3" x1="7.5" y1="29" x2="43.5" y2="29"/>
	<line opacity="0.33" fill="currentColor" stroke="currentColor" stroke-miterlimit="3" x1="7.5" y1="35" x2="43.5" y2="35"/>
	<path fill="currentColor" stroke="currentColor" d="M25.553,3.992c0.404,0.75,0.762,1.673,1.068,2.77c0.309,1.058,0.48,2.048,0.52,2.971
		c-0.096,3.291-1.365,6.175-3.811,8.656l0.75,3.867c0.288-0.059,0.587-0.086,0.895-0.086c1.501,0.038,2.714,0.606,3.638,1.702
		c0.904,1.096,1.367,2.405,1.387,3.925c-0.02,1.25-0.366,2.316-1.04,3.201c-0.673,0.904-1.569,1.625-2.685,2.166l0.951,4.674
		c0.06,0.402,0.078,0.76,0.06,1.066c-0.077,2.424-1.397,3.809-3.956,4.154c-1.001,0.098-1.935-0.152-2.801-0.75
		c-0.867-0.598-1.376-1.412-1.53-2.451c-0.039-0.732,0.134-1.387,0.519-1.963c0.405-0.561,0.954-0.896,1.647-1.012
		c0.615-0.059,1.154,0.137,1.617,0.576c0.461,0.424,0.712,0.963,0.75,1.617c-0.018,0.885-0.318,1.49-0.895,1.816
		c-0.577,0.348-1.068,0.473-1.472,0.373c0.077,0.387,0.355,0.664,0.837,0.838c0.48,0.152,0.904,0.211,1.27,0.172
		c2.119-0.324,3.195-1.471,3.234-3.434c0.02-0.52-0.039-1.076-0.172-1.672l-0.811-3.693c-0.75,0.211-1.443,0.316-2.08,0.316
		c-2.041-0.057-3.764-0.807-5.169-2.25c-1.405-1.443-2.214-3.279-2.426-5.51c-0.077-2.232,0.549-4.223,1.877-5.974
		c1.328-1.731,2.743-3.308,4.244-4.731c-0.443-1.693-0.673-3.405-0.692-5.136c0-1.173,0.259-2.529,0.779-4.068
		c0.52-1.558,1.318-2.597,2.396-3.116C24.783,2.934,25.149,3.261,25.553,3.992z M24.89,6.416c-0.943,0.289-1.618,1.029-2.022,2.222
		c-0.404,1.174-0.615,2.232-0.635,3.174c0.02,0.981,0.154,1.942,0.404,2.884c0.942-0.807,1.771-1.808,2.483-3
		c0.692-1.212,1.03-2.481,1.011-3.809c0-0.385-0.105-0.721-0.318-1.01C25.602,6.589,25.292,6.435,24.89,6.416z M24.601,24.939
		l1.53,7.532c1.502-0.826,2.262-2.115,2.281-3.867c-0.098-1.096-0.491-1.971-1.186-2.625C26.534,25.304,25.658,24.958,24.601,24.939
		z M22.233,26.211c-0.462,0.576-0.693,1.23-0.693,1.961c0.097,1.211,0.693,2.047,1.791,2.51c0.116,0.059,0.173,0.133,0.173,0.23
		c-0.02,0.154-0.125,0.23-0.318,0.23c-0.886-0.328-1.608-0.865-2.166-1.615c-0.559-0.771-0.837-1.646-0.837-2.627
		c0.039-0.979,0.366-1.883,0.982-2.71c0.615-0.809,1.366-1.385,2.251-1.732l-0.692-3.491c-1.29,1.077-2.455,2.298-3.495,3.664
		c-1.04,1.347-1.598,2.905-1.674,4.674c0.057,1.828,0.693,3.242,1.905,4.242c1.231,1.02,2.714,1.5,4.447,1.443
		c0.5-0.02,1.001-0.115,1.501-0.289l-1.501-7.675C23.233,25.238,22.675,25.633,22.233,26.211z"/>
</g>
</svg>
