<?xml version="1.0" encoding="utf-8"?>
<!-- Generator: Adobe Illustrator 15.1.0, SVG Export Plug-In . SVG Version: 6.00 Build 0)  -->
<!DOCTYPE svg PUBLIC "-//W3C//DTD SVG 1.1//EN" "http://www.w3.org/Graphics/SVG/1.1/DTD/svg11.dtd">
<svg version="1.1" id="Layer_1" xmlns="http://www.w3.org/2000/svg" xmlns:xlink="http://www.w3.org/1999/xlink" x="0px" y="0px"
	 width="50px" height="50px" viewBox="0 0 50 50" enable-background="new 0 0 50 50" xml:space="preserve">
<path id="fermata" fill="currentColor" d="M35.779,27.195c-0.291-2.612-1.451-4.703-3.483-6.271c-2.092-1.569-4.385-2.382-6.884-2.44
	c-2.497,0.058-4.791,0.872-6.882,2.44c-2.033,1.567-3.166,3.658-3.398,6.271H14c0.29-3.193,1.423-5.981,3.398-8.361
	c1.916-2.441,4.588-3.719,8.014-3.834c3.369,0.115,6.07,1.364,8.104,3.747c2.032,2.381,3.193,5.197,3.484,8.45h-1.221V27.195z
	 M27.328,25.454c-0.059,1.045-0.696,1.627-1.916,1.741c-1.218-0.114-1.887-0.696-2.003-1.741c0.117-1.044,0.785-1.627,2.003-1.742
	C26.632,23.827,27.271,24.41,27.328,25.454z"/>
</svg>
