<?xml version="1.0" encoding="utf-8"?>
<!-- Generator: Adobe Illustrator 15.1.0, SVG Export Plug-In . SVG Version: 6.00 Build 0)  -->
<!DOCTYPE svg PUBLIC "-//W3C//DTD SVG 1.1//EN" "http://www.w3.org/Graphics/SVG/1.1/DTD/svg11.dtd">
<svg version="1.1" id="Layer_1" xmlns="http://www.w3.org/2000/svg" xmlns:xlink="http://www.w3.org/1999/xlink" x="0px" y="0px"
	 width="50px" height="50px" viewBox="0 0 50 50" enable-background="new 0 0 50 50" xml:space="preserve">
<path id="flat" fill="currentColor" stroke="currentColor" d="M26.4,26.7c-0.5-0.033-0.984,0.166-1.45,0.6c-0.467,0.468-0.717,0.851-0.75,1.15v6.75
	c0.733-0.867,1.517-1.851,2.35-2.949c0.866-1.135,1.333-2.269,1.4-3.399C27.85,27.583,27.334,26.866,26.4,26.7z M24.2,26.648
	c1.033-0.897,2.216-1.397,3.55-1.5c0.833,0,1.566,0.334,2.2,1c0.633,0.636,0.948,1.418,0.948,2.353
	c-0.1,1.199-0.565,2.25-1.398,3.147c-0.833,0.9-1.7,1.685-2.6,2.353c-1.4,1.231-2.7,2.5-3.9,3.799V11h1.2V26.648z"/>
</svg>
