<?xml version="1.0" encoding="utf-8"?>
<!-- Generator: Adobe Illustrator 15.1.0, SVG Export Plug-In . SVG Version: 6.00 Build 0)  -->
<!DOCTYPE svg PUBLIC "-//W3C//DTD SVG 1.1//EN" "http://www.w3.org/Graphics/SVG/1.1/DTD/svg11.dtd">
<svg version="1.1" id="Layer_1" xmlns="http://www.w3.org/2000/svg" xmlns:xlink="http://www.w3.org/1999/xlink" x="0px" y="0px"
	 width="50px" height="50px" viewBox="0 0 50 50" enable-background="new 0 0 50 50" xml:space="preserve">
<path id="whole" fill="currentColor" stroke="currentColor" d="M23.043,40.023c0.103,1.246,0.466,2.26,1.091,3.039c0.622,0.729,1.35,1.037,2.181,0.936
	c1.25-0.053,1.82-0.908,1.718-2.572c-0.105-1.299-0.468-2.312-1.093-3.041c-0.625-0.727-1.352-1.037-2.184-0.934
	c-0.622,0.104-1.091,0.338-1.401,0.699C23.095,38.518,22.99,39.139,23.043,40.023z M29.434,37.605
	c1.506,0.571,2.338,1.61,2.494,3.117c-0.104,1.508-0.883,2.547-2.338,3.12c-1.402,0.57-2.729,0.83-3.975,0.779
	c-1.248,0.051-2.6-0.209-4.055-0.779c-1.455-0.573-2.261-1.612-2.416-3.12c0.104-1.507,0.857-2.546,2.26-3.117
	c1.455-0.572,2.78-0.83,3.977-0.779C26.627,36.775,27.977,37.033,29.434,37.605z"/>
</svg>
