<?xml version="1.0" encoding="utf-8"?>
<!-- Generator: Adobe Illustrator 15.1.0, SVG Export Plug-In . SVG Version: 6.00 Build 0)  -->
<!DOCTYPE svg PUBLIC "-//W3C//DTD SVG 1.1//EN" "http://www.w3.org/Graphics/SVG/1.1/DTD/svg11.dtd">
<svg version="1.1" id="Layer_1" xmlns="http://www.w3.org/2000/svg" xmlns:xlink="http://www.w3.org/1999/xlink" x="0px" y="0px"
	 width="50px" height="50px" viewBox="0 0 50 50" enable-background="new 0 0 50 50" xml:space="preserve">
<path id="_x36_4th" fill="currentColor" stroke="currentColor" d="M37.038,32.547c0.323-1.051,0.485-2.115,0.485-3.195c-0.026-0.971-0.189-1.887-0.485-2.75
	c0.323-1.13,0.485-2.305,0.485-3.518c-0.026-0.998-0.203-1.928-0.526-2.791c0.353-1.16,0.526-2.346,0.526-3.559
	c-0.082-2.184-0.836-4.125-2.267-5.824c-1.052-1.294-2.399-2.643-4.045-4.045c-0.674-0.647-1.118-1.245-1.334-1.973
	C29.689,4.164,29.583,3,29.555,3H29v10.82l0,0v23.909c-1-0.521-1.654-0.754-2.798-0.701c-1.299,0.051-2.673,0.572-3.972,1.559
	c-1.298,0.986-2.01,2.156-2.062,3.508c0,0.832,0.293,1.482,0.917,1.947c0.571,0.521,1.291,0.779,2.173,0.779
	c1.507-0.051,3.137-0.545,4.387-1.479C28.941,42.354,29,41.131,30,39.678V28.82l0,0V28.3c1,0.619,1.895,1.32,3.135,2.104
	c1.268,0.754,2.143,1.522,2.842,2.305c0.541,0.674,0.834,1.322,0.996,1.941c0.162,0.565,0.215,1.268,0.215,2.104
	c0.027,0.836-0.123,1.836-0.418,2.805C36.443,40.557,36.094,41,35.743,42h0.526c1.023-2,1.576-3.533,1.657-5.797
	C37.9,34.936,37.604,33.654,37.038,32.547z M30,8.766c2,1.024,3.635,2.319,5.037,3.882C36.225,13.943,37,15.413,37,17.057
	c0,0.405,0,0.876,0,1.416c0,0.324-0.204,0.62-0.204,0.89c-0.375-0.755-0.916-1.456-1.457-2.103
	c-1.051-1.294-2.438-2.643-4.085-4.045c-0.674-0.647-0.916-1.334-1.132-2.062C29.934,10.424,30,9.764,30,9.17V8.766z M30,15.116
	c2,1.024,3.635,2.319,5.037,3.882C36.225,20.293,37,21.763,37,23.406c0,0.406,0,0.877,0,1.416c0,0.297-0.204,0.566-0.204,0.809
	c-0.351-0.729-0.892-1.428-1.457-2.104c-1.051-1.266-2.438-2.614-4.085-4.043c-0.674-0.647-0.916-1.321-1.132-2.022
	C29.934,16.734,30,16.073,30,15.48V15.116z M36.593,31.779c-0.216-0.377-0.473-0.754-0.769-1.133
	c-0.432-0.566-0.891-1.078-1.375-1.537c-0.512-0.484-1.146-1.064-1.9-1.738c-0.729-0.676-1.39-1.537-1.982-2.588
	c-0.594-1.08-0.93-2.213-1.012-3.398c1.995,1.051,3.694,2.346,5.096,3.883c1.188,1.294,1.861,2.764,2.022,4.408
	C36.7,30.297,36.673,30.998,36.593,31.779z"/>
</svg>
