<?xml version="1.0" encoding="utf-8"?>
<!-- Generator: Adobe Illustrator 15.1.0, SVG Export Plug-In . SVG Version: 6.00 Build 0)  -->
<!DOCTYPE svg PUBLIC "-//W3C//DTD SVG 1.1//EN" "http://www.w3.org/Graphics/SVG/1.1/DTD/svg11.dtd">
<svg version="1.1" id="Layer_1" xmlns="http://www.w3.org/2000/svg" xmlns:xlink="http://www.w3.org/1999/xlink" x="0px" y="0px"
	 width="50px" height="50px" viewBox="0 0 50 50" enable-background="new 0 0 50 50" xml:space="preserve">
<path id="_x33_2nd" fill="currentColor" stroke="currentColor" d="M37.038,31.018c0.323-1.051,0.485-2.117,0.485-3.194c-0.027-0.972-0.189-1.888-0.485-2.75
	c0.323-1.133,0.485-2.305,0.485-3.519c-0.08-2.184-0.836-4.125-2.267-5.824c-1.051-1.294-2.399-2.643-4.044-4.044
	c-0.675-0.647-1.119-1.155-1.335-1.883C29.689,9.074,29.583,8,29.557,8H29v19.82l0,0v9.908c-1-0.521-1.544-0.756-2.688-0.701
	c-1.299,0.051-2.618,0.57-3.917,1.559c-1.298,0.984-1.983,2.156-2.036,3.507c0,0.832,0.308,1.482,0.931,1.948
	c0.571,0.521,1.297,0.779,2.18,0.779c1.507-0.051,3.03-0.545,4.278-1.479C29.049,42.354,30,41.13,30,39.677V26.865
	c1,0.598,1.878,1.264,3.062,2.01c1.266,0.754,2.176,1.521,2.877,2.305c0.539,0.674,0.854,1.321,1.017,1.941
	c0.16,0.594,0.224,1.309,0.224,2.145c0.026,0.836-0.119,2.078-0.414,3.049C36.439,39.312,36.094,40,35.744,41h0.523
	c1.026-2,1.58-3.777,1.659-6.043C37.9,33.663,37.604,32.123,37.038,31.018z M29.652,13.641h-0.098v-0.056
	C29.59,13.603,29.62,13.624,29.652,13.641z M36.593,30.25c-0.215-0.378-0.473-0.756-0.768-1.133
	c-0.431-0.566-0.89-1.078-1.376-1.537c-0.514-0.484-1.146-1.064-1.901-1.739c-0.728-0.675-1.241-1.537-1.834-2.589
	C30.299,22.498,30,21.716,30,20.909v-0.967c2,1.036,3.434,2.299,4.798,3.796c1.188,1.293,1.789,2.763,1.949,4.409
	C36.773,28.768,36.674,29.467,36.593,30.25z M37,23.293c0,0.297-0.202,0.566-0.202,0.809c-0.353-0.728-0.891-1.428-1.459-2.104
	c-1.051-1.268-2.44-2.615-4.083-4.044c-0.676-0.647-0.992-1.321-1.209-2.022C29.975,15.648,30,15.384,30,15.121v-1.45
	c2,1.012,3.598,2.274,4.961,3.797C36.148,18.763,37,20.232,37,21.877C37,22.281,37,22.754,37,23.293z"/>
</svg>
