<?xml version="1.0" encoding="utf-8"?>
<!-- Generator: Adobe Illustrator 15.1.0, SVG Export Plug-In . SVG Version: 6.00 Build 0)  -->
<!DOCTYPE svg PUBLIC "-//W3C//DTD SVG 1.1//EN" "http://www.w3.org/Graphics/SVG/1.1/DTD/svg11.dtd">
<svg version="1.1" id="Layer_1" xmlns="http://www.w3.org/2000/svg" xmlns:xlink="http://www.w3.org/1999/xlink" x="0px" y="0px"
	 width="50px" height="50px" viewBox="0 0 50 50" enable-background="new 0 0 50 50" xml:space="preserve">
<path id="_x31_6th" fill="currentColor" stroke="currentColor" d="M36.839,27.539c-0.157-1.559-0.81-2.961-1.95-4.209c-1.352-1.507-2.988-2.753-4.91-3.741
	c0.051,1.144,0.362,2.21,0.935,3.196c0.571,1.038,1.221,1.871,1.948,2.494c0.728,0.676,1.326,1.249,1.793,1.716
	c0.469,0.467,0.937,0.96,1.404,1.481c0.258,0.36,0.492,0.727,0.699,1.088C36.811,28.838,36.839,28.164,36.839,27.539z
	 M37.928,32.607v2.338c-0.184,1.686-0.678,3.139-1.479,4.365h-0.547c0.363-0.57,0.701-1.324,1.014-2.261
	c0.26-0.987,0.391-1.87,0.391-2.649s-0.078-1.482-0.234-2.107c-0.155-0.57-0.492-1.168-1.012-1.789
	c-0.678-0.781-1.611-1.535-2.808-2.262c-1.248-0.729-2.34-1.404-3.274-2.027v13.641c-0.104,1.453-0.805,2.677-2.104,3.664
	c-1.249,0.937-2.626,1.431-4.133,1.48c-0.883,0-1.61-0.258-2.183-0.779c-0.623-0.467-0.936-1.117-0.936-1.949
	c0.053-1.35,0.729-2.521,2.027-3.506c1.298-0.988,2.598-1.508,3.896-1.559c1.144-0.055,2.026,0.18,2.649,0.701V13.82h0.781
	c0,0.572,0.104,1.221,0.312,1.949c0.207,0.676,0.622,1.325,1.246,1.948c1.61,1.352,2.911,2.65,3.897,3.897
	c1.404,1.662,2.154,3.534,2.26,5.612c0,1.039-0.155,2.08-0.467,3.117C37.582,31.059,37.814,31.811,37.928,32.607z"/>
</svg>
