<?xml version="1.0" encoding="utf-8"?>
<!-- Generator: Adobe Illustrator 15.1.0, SVG Export Plug-In . SVG Version: 6.00 Build 0)  -->
<!DOCTYPE svg PUBLIC "-//W3C//DTD SVG 1.1//EN" "http://www.w3.org/Graphics/SVG/1.1/DTD/svg11.dtd">
<svg version="1.1" id="Layer_1" xmlns="http://www.w3.org/2000/svg" xmlns:xlink="http://www.w3.org/1999/xlink" x="0px" y="0px"
	 width="50px" height="50px" viewBox="0 0 50 50" enable-background="new 0 0 50 50" xml:space="preserve">
<path id="_x38_th" fill="currentColor" stroke="currentColor" d="M35.74,23.15c1.351,1.662,2.104,3.56,2.26,5.691c-0.055,1.609-0.391,3.144-1.016,4.601
	c-0.569,1.504-1.144,2.701-1.713,3.586h-0.469c0.414-0.834,0.883-1.898,1.402-3.197c0.468-1.299,0.702-2.701,0.702-4.209
	c-0.104-1.768-0.677-3.354-1.716-4.755c-0.623-0.779-1.377-1.429-2.26-1.949c-0.885-0.519-1.768-0.832-2.649-0.937v17.695
	c-0.104,1.453-0.808,2.677-2.104,3.664c-1.248,0.937-2.625,1.431-4.132,1.479c-0.883,0-1.611-0.258-2.183-0.778
	c-0.623-0.467-0.937-1.117-0.937-1.949c0.053-1.35,0.729-2.521,2.026-3.506c1.299-0.987,2.6-1.508,3.897-1.56
	c1.145-0.055,2.026,0.181,2.65,0.701V13.641h0.779c0.053,0.78,0.183,1.637,0.39,2.573c0.208,0.936,0.702,1.922,1.481,2.961
	C33.504,20.631,34.701,21.957,35.74,23.15z"/>
</svg>
