<?xml version="1.0" encoding="utf-8"?>
<!-- Generator: Adobe Illustrator 15.1.0, SVG Export Plug-In . SVG Version: 6.00 Build 0)  -->
<!DOCTYPE svg PUBLIC "-//W3C//DTD SVG 1.1//EN" "http://www.w3.org/Graphics/SVG/1.1/DTD/svg11.dtd">
<svg version="1.1" id="Layer_1" xmlns="http://www.w3.org/2000/svg" xmlns:xlink="http://www.w3.org/1999/xlink" x="0px" y="0px"
	 width="50px" height="50px" viewBox="0 0 50 50" enable-background="new 0 0 50 50" xml:space="preserve">
<g id="_x33_2nd_1_">
	<path fill="currentColor" stroke="currentColor" d="M28.801,9.788l-0.15,0.45c0.201,0.433,0.533,0.533,1,0.3c1.566-0.732,2.783-1.867,3.65-3.399H34
		l-10.35,37.35h-1.4l3.8-13.65c-1.367,0.867-2.817,1.367-4.351,1.5c-1-0.032-1.867-0.351-2.6-0.948
		c-0.733-0.602-1.133-1.385-1.2-2.352c0.1-1.867,1.083-2.898,2.95-3.1c1.667,0.231,2.55,1.183,2.649,2.85
		c-0.133,0.833-0.232,1.352-0.3,1.55c0.101,0.2,0.267,0.283,0.5,0.25c0.5,0,1.034-0.217,1.601-0.649
		c0.566-0.435,1.018-0.832,1.35-1.199l2.051-7.85c-1.366,0.866-2.817,1.366-4.35,1.5c-0.968-0.033-1.833-0.351-2.6-0.95
		c-0.733-0.601-1.117-1.367-1.15-2.3c0.066-1.867,1.05-2.9,2.95-3.101c0.8,0.067,1.449,0.4,1.949,1
		c0.467,0.601,0.684,1.284,0.65,2.05c-0.168,0.634-0.269,1.066-0.301,1.301c0.101,0.199,0.268,0.282,0.5,0.25
		c0.5,0.032,1.032-0.184,1.601-0.65c0.567-0.466,1.017-0.917,1.351-1.35l2.199-7.75c-1.367,0.866-2.816,1.366-4.35,1.5
		c-0.967-0.033-1.833-0.351-2.601-0.95c-0.733-0.601-1.117-1.383-1.15-2.351c0.033-1.6,0.85-2.616,2.45-3.05
		C26.684,5.905,27.4,6.121,28,6.688c0.633,0.533,0.95,1.232,0.95,2.1C29.018,9.155,28.967,9.488,28.801,9.788z"/>
</g>
</svg>
