<?xml version="1.0" encoding="utf-8"?>
<!-- Generator: Adobe Illustrator 15.1.0, SVG Export Plug-In . SVG Version: 6.00 Build 0)  -->
<!DOCTYPE svg PUBLIC "-//W3C//DTD SVG 1.1//EN" "http://www.w3.org/Graphics/SVG/1.1/DTD/svg11.dtd">
<svg version="1.1" id="Layer_1" xmlns="http://www.w3.org/2000/svg" xmlns:xlink="http://www.w3.org/1999/xlink" x="0px" y="0px"
	 width="50px" height="50px" viewBox="0 0 50 50" enable-background="new 0 0 50 50" xml:space="preserve">
<g id="_x36_4th_1_">
	<path fill="currentColor" stroke="currentColor" d="M27.1,7.9c-0.967-0.033-1.832-0.351-2.6-0.95c-0.732-0.6-1.117-1.383-1.15-2.35
		C23.383,3,24.2,1.983,25.8,1.55C26.667,1.417,27.4,1.633,28,2.2c0.6,0.533,0.917,1.232,0.95,2.1c0.032,0.367-0.034,0.7-0.2,1
		L28.6,5.75c0.2,0.433,0.533,0.533,1,0.3C31.2,5.317,32.4,4.183,33.2,2.65h0.7L20.75,50h-1.4l3.75-13.6
		c-1.333,0.865-2.767,1.365-4.3,1.5c-1-0.033-1.867-0.352-2.6-0.95c-0.733-0.601-1.133-1.384-1.2-2.351
		c0.1-1.867,1.083-2.899,2.95-3.101c1.667,0.233,2.55,1.183,2.65,2.851c-0.133,0.832-0.233,1.351-0.3,1.551
		c0.1,0.199,0.267,0.281,0.5,0.25c0.467,0,0.983-0.219,1.55-0.65c0.601-0.434,1.051-0.833,1.351-1.2L25.85,26.4
		c-1.367,0.865-2.832,1.365-4.398,1.5c-0.967-0.033-1.833-0.352-2.6-0.95c-0.733-0.601-1.117-1.367-1.15-2.3
		c0.066-1.867,1.05-2.9,2.95-3.101c0.8,0.067,1.45,0.4,1.95,1c0.5,0.601,0.733,1.284,0.7,2.05c-0.167,0.634-0.267,1.067-0.3,1.301
		c0.1,0.199,0.268,0.281,0.5,0.25c0.5,0.031,1.033-0.185,1.6-0.65s1.018-0.917,1.351-1.35l2.2-7.75
		c-1.367,0.866-2.816,1.366-4.352,1.5c-1-0.033-1.883-0.351-2.65-0.95c-0.733-0.601-1.117-1.383-1.15-2.351
		c0.033-1.6,0.867-2.616,2.5-3.05c0.833-0.1,1.55,0.117,2.15,0.65c0.633,0.565,0.949,1.267,0.949,2.1
		c0.066,0.367,0.019,0.717-0.148,1.05l-0.15,0.4c0.2,0.433,0.534,0.533,1,0.3c0.9-0.3,1.719-0.899,2.45-1.8l2.2-7.85
		C30.117,7.267,28.667,7.767,27.1,7.9z"/>
</g>
</svg>
