<?xml version="1.0" encoding="utf-8"?>
<!-- Generator: Adobe Illustrator 15.1.0, SVG Export Plug-In . SVG Version: 6.00 Build 0)  -->
<!DOCTYPE svg PUBLIC "-//W3C//DTD SVG 1.1//EN" "http://www.w3.org/Graphics/SVG/1.1/DTD/svg11.dtd">
<svg version="1.1" id="Layer_1" xmlns="http://www.w3.org/2000/svg" xmlns:xlink="http://www.w3.org/1999/xlink" x="0px" y="0px"
	 width="50px" height="50px" viewBox="0 0 50 50" enable-background="new 0 0 50 50" xml:space="preserve">
<g id="quarter_1_">
	<path fill="currentColor" stroke="currentColor" d="M30.398,16.8c-2.5,2.7-3.865,5.167-4.1,7.4c0.034,1.399,0.467,2.733,1.301,4
		c0.832,1.266,1.699,2.416,2.601,3.448L29.6,32.45c-0.968-0.535-1.899-0.834-2.801-0.9c-0.867-0.032-1.583,0.367-2.15,1.199
		c-0.699,1.233-0.782,2.383-0.25,3.451c0.5,1.063,1.067,1.85,1.701,2.35l-0.551,0.8c-1.267-0.898-2.466-1.949-3.6-3.148
		c-1.134-1.168-1.783-2.533-1.95-4.102c0.232-2.267,1.518-3.416,3.851-3.449c0.899,0,1.933,0.315,3.1,0.949v-0.101l-6.3-8.199
		c1.166-1,2.149-2.183,2.95-3.55c0.799-1.367,1.133-2.833,1-4.4c-0.4-1.6-1.184-3.05-2.351-4.35h1.7L30.398,16.8z"/>
</g>
</svg>
