<?xml version="1.0" encoding="utf-8"?>
<!-- Generator: Adobe Illustrator 15.1.0, SVG Export Plug-In . SVG Version: 6.00 Build 0)  -->
<!DOCTYPE svg PUBLIC "-//W3C//DTD SVG 1.1//EN" "http://www.w3.org/Graphics/SVG/1.1/DTD/svg11.dtd">
<svg version="1.1" id="Layer_1" xmlns="http://www.w3.org/2000/svg" xmlns:xlink="http://www.w3.org/1999/xlink" x="0px" y="0px"
	 width="50px" height="50px" viewBox="0 0 50 50" enable-background="new 0 0 50 50" xml:space="preserve">
<g id="_x38_th_1_">
	<path fill="currentColor" stroke="currentColor" d="M25.951,19.74l-0.102,0.45c0.2,0.433,0.533,0.533,1,0.3c1.602-0.733,2.768-1.867,3.5-3.4H31l-4.75,17.4
		h-1.399l3.851-13.651c-1.367,0.867-2.817,1.367-4.351,1.5c-1-0.032-1.867-0.35-2.6-0.949c-0.7-0.601-1.084-1.384-1.15-2.351
		c0.033-1.6,0.85-2.6,2.45-3c0.833-0.133,1.55,0.067,2.15,0.601c0.6,0.532,0.916,1.232,0.949,2.1
		C26.184,19.107,26.117,19.44,25.951,19.74z"/>
</g>
</svg>
