<?xml version="1.0" encoding="utf-8"?>
<!-- Generator: Adobe Illustrator 15.1.0, SVG Export Plug-In . SVG Version: 6.00 Build 0)  -->
<!DOCTYPE svg PUBLIC "-//W3C//DTD SVG 1.1//EN" "http://www.w3.org/Graphics/SVG/1.1/DTD/svg11.dtd">
<svg version="1.1" id="Layer_1" xmlns="http://www.w3.org/2000/svg" xmlns:xlink="http://www.w3.org/1999/xlink" x="0px" y="0px"
	 width="50px" height="50px" viewBox="0 0 50 50" enable-background="new 0 0 50 50" xml:space="preserve">
<g id="_x31_6th_1_">
	<path fill="currentColor" stroke="currentColor" d="M22.549,17.05c-0.733-0.601-1.117-1.383-1.15-2.351c0-1.6,0.816-2.616,2.45-3.05
		c0.801-0.133,1.5,0.083,2.1,0.65c0.6,0.533,0.918,1.232,0.951,2.1c0.031,0.4-0.033,0.75-0.201,1.05l-0.1,0.45
		c0.198,0.4,0.532,0.483,1,0.25c1.565-0.7,2.782-1.833,3.649-3.399H32L24.4,40h-1.401l3.8-13.65c-1.332,0.867-2.766,1.367-4.3,1.5
		c-1-0.033-1.867-0.35-2.6-0.949c-0.733-0.601-1.133-1.383-1.2-2.351c0.1-1.867,1.083-2.9,2.95-3.101
		c0.833,0.033,1.483,0.351,1.95,0.95c0.5,0.601,0.732,1.3,0.7,2.101c-0.134,0.667-0.233,1.116-0.3,1.35
		c0.1,0.2,0.267,0.283,0.5,0.25c0.467,0,0.983-0.217,1.549-0.649c0.565-0.433,1-0.782,1.302-1.05l2.1-7.899
		c-1.367,0.866-2.816,1.366-4.35,1.5C24.166,17.967,23.316,17.649,22.549,17.05z"/>
</g>
</svg>
